<svg width="99" height="163" viewBox="0 0 99 163" fill="none" xmlns="http://www.w3.org/2000/svg">
<rect width="99" height="142" transform="translate(0 21)" fill="white"/>
<rect width="89" height="121" transform="translate(5)" fill="#DE113C"/>
<path d="M1.86 22H9.84C17.4 22 21.81 17.5 21.81 11.44C21.81 5.32 17.46 1 9.96 1H1.86V22ZM7.68 16.84V6.1H10.05C13.53 6.1 15.84 8.11 15.84 11.47C15.84 14.92 13.53 16.84 10.05 16.84H7.68ZM35.3595 22.42C41.8395 22.42 46.6995 17.53 46.6995 11.5C46.6995 5.41 41.8995 0.58 35.4195 0.58C28.9395 0.58 24.0795 5.47 24.0795 11.5C24.0795 17.59 28.8795 22.42 35.3595 22.42ZM35.4195 17.17C32.2395 17.17 30.0495 14.53 30.0495 11.5C30.0495 8.41 32.1795 5.83 35.3595 5.83C38.5695 5.83 40.7595 8.47 40.7595 11.5C40.7595 14.59 38.6295 17.17 35.4195 17.17ZM49.7311 22H60.5611C65.5711 22 68.5111 19.81 68.5111 16.21C68.5111 13.3 66.8911 11.86 64.3411 11.02C66.2011 10.21 67.5811 8.77 67.5811 6.34C67.5811 4.84 67.0711 3.73 66.2311 2.89C65.0011 1.66 63.1411 1 60.5011 1H49.7311V22ZM55.4011 17.32V13.45H59.8411C61.7911 13.45 62.6911 14.2 62.6911 15.34C62.6911 16.63 61.6711 17.32 59.9011 17.32H55.4011ZM55.4011 9.37V5.68H59.1811C60.9211 5.68 61.8211 6.34 61.8211 7.48C61.8211 8.77 60.8311 9.37 59.0611 9.37H55.4011ZM71.1764 22H87.1664V16.9H76.9964V1H71.1764V22ZM99.0216 22.42C105.502 22.42 110.362 17.53 110.362 11.5C110.362 5.41 105.562 0.58 99.0816 0.58C92.6016 0.58 87.7416 5.47 87.7416 11.5C87.7416 17.59 92.5416 22.42 99.0216 22.42ZM99.0816 17.17C95.9016 17.17 93.7116 14.53 93.7116 11.5C93.7116 8.41 95.8416 5.83 99.0216 5.83C102.232 5.83 104.422 8.47 104.422 11.5C104.422 14.59 102.292 17.17 99.0816 17.17ZM113.393 22H119.213V16.57L121.343 14.2L126.623 22H133.613L125.393 10.03L133.343 1H126.443L119.213 9.52V1H113.393V22Z" transform="translate(17 154) rotate(-90)" fill="black"/>
</svg>
